{"title":"Jay and Silent Bob Strike Back-720p MP4 AAC x264 BRRip 2001-CC","uid":7880456,"size":3043085429,"categoryP":"video","categoryS":"hd___movies","magnet":"?xt=urn:btih:b2666062b2f594ae5e9b610584db3036893af556&amp;dn=Jay+and+Silent+Bob+Strike+Back-720p+MP4+AAC+x264+BRRip+2001-CC&amp;tr=udp%3A%2F%2Ftracker.openbittorrent.com%3A80&amp;tr=udp%3A%2F%2Fopen.demonii.com%3A1337&amp;tr=udp%3A%2F%2Ftracker.coppersurfer.tk%3A6969&amp;tr=udp%3A%2F%2Fexodus.desync.com%3A6969","seeders":1,"leechers":1,"uploader":"Caveman44","files":-1,"time":1354477927,"description":" &lt;a href=&quot;http://www.imdb.com/title/tt0261392/&quot; rel=&quot;nofollow&quot; target=&quot;_NEW&quot;&gt;http://www.imdb.com/title/tt0261392/&lt;/a&gt;\n\nSource: Jay.And.Silent.Bob.Strike.Back.2001.1080p.BluRay.x264-HDMI Thanks!\n\nSubs: Arabic, Bulgarian, Danish, Dutch, English, German, Indonesian, Romanian, Servian, Slovenian, Spanish and Swedish.\n\nSample and Screens included.\n\nGeneral\nComplete name                            : Jay and Silent Bob Strike Back-720p MP4 AAC x264 BRRip 2001-CC.mp4\nFormat                                   : MPEG-4\nFormat profile                           : Base Media\nCodec ID                                 : isom\nFile size                                : 2.80 GiB\nDuration                                 : 1h 44mn\nOverall bit rate mode                    : Variable\nOverall bit rate                         : 3 840 Kbps\nEncoded date                             : UTC 2012-11-06 16:37:25\n\nVideo\nID                                       : 1\nFormat                                   : AVC\nFormat/Info                              : Advanced Video Codec\nFormat profile                           : &lt;a class=&quot;__cf_email__&quot; href=&quot;/cdn-cgi/l/email-protection&quot; data-cfemail=&quot;8cc4e5ebe4ccc0b8a2bd&quot;&gt;[email&amp;#160;protected]&lt;/a&gt;&lt;script cf-hash='f9e31' type=&quot;text/javascript&quot;&gt;\n/* &lt;![CDATA[ */!function(){try{var t=&quot;currentScript&quot;in document?document.currentScript:function(){for(var t=document.getElementsByTagName(&quot;script&quot;),e=t.length;e--;)if(t[e].getAttribute(&quot;cf-hash&quot;))return t[e]}();if(t&amp;&amp;t.previousSibling){var e,r,n,i,c=t.previousSibling,a=c.getAttribute(&quot;data-cfemail&quot;);if(a){for(e=&quot;&quot;,r=parseInt(a.substr(0,2),16),n=2;a.length-n;n+=2)i=parseInt(a.substr(n,2),16)^r,e+=String.fromCharCode(i);e=document.createTextNode(e),c.parentNode.replaceChild(e,c)}}}catch(u){}}();/* ]]&gt; */&lt;/script&gt;\nFormat settings, CABAC                   : Yes\nFormat settings, ReFrames                : 5 frames\nCodec ID                                 : avc1\nCodec ID/Info                            : Advanced Video Coding\nDuration                                 : 1h 44mn\nBit rate                                 : 3 507 Kbps\nMaximum bit rate                         : 17.7 Mbps\nWidth                                    : 1 280 pixels\nHeight                                   : 544 pixels\nDisplay aspect ratio                     : 2.35:1\nFrame rate mode                          : Variable\nFrame rate                               : 23.976 fps\nMinimum frame rate                       : 23.810 fps\nMaximum frame rate                       : 24.390 fps\nColor space                              : YUV\nChroma subsampling                       : 4:2:0\nBit depth                                : 8 bits\nScan type                                : Progressive\nBits/(Pixel*Frame)                       : 0.210\nStream size                              : 2.52 GiB (90%)\nWriting library                          : x264 core 112\n\nAudio\nID                                       : 2\nFormat                                   : AAC\nFormat/Info                              : Advanced Audio Codec\nFormat profile                           : LC\nCodec ID                                 : 40\nDuration                                 : 1h 44mn\nBit rate mode                            : Variable\nBit rate                                 : 384 Kbps\nMaximum bit rate                         : 739 Kbps\nChannel(s)                               : 6 channels\nChannel positions                        : Front: L C R, Side: L R, LFE\nSampling rate                            : 48.0 KHz\nCompression mode                         : Lossy\nDelay relative to video                  : 83ms\nStream size                              : 287 MiB (10%)\nLanguage                                 : English\n\nEnjoy...\n\nRequested by Alorati\n\nComing soon: Donnie Brasco, The Gold Rush, Buffalo 66, The Polar Express and more...","torrent":{"xt":"urn:btih:b2666062b2f594ae5e9b610584db3036893af556","amp;dn":"Jay+and+Silent+Bob+Strike+Back-720p+MP4+AAC+x264+BRRip+2001-CC","amp;tr":["udp%3A%2F%2Ftracker.openbittorrent.com%3A80","udp%3A%2F%2Fopen.demonii.com%3A1337","udp%3A%2F%2Ftracker.coppersurfer.tk%3A6969","udp%3A%2F%2Fexodus.desync.com%3A6969"],"infoHash":"b2666062b2f594ae5e9b610584db3036893af556","infoHashBuffer":{"type":"Buffer","data":[178,102,96,98,178,245,148,174,94,155,97,5,132,219,48,54,137,58,245,86]},"announce":[],"urlList":[]}}